<svg width="319" height="319" viewBox="0 0 319 319" fill="none" xmlns="http://www.w3.org/2000/svg">
<path d="M101.599 318.094C96.6489 315.904 91.1589 314.484 86.8489 311.394C70.7189 299.844 68.4289 277.244 81.3789 262.174C81.7689 261.714 82.1688 261.264 82.8088 260.514C74.1188 259.104 66.8188 255.644 61.0588 249.304C55.3388 243.014 52.249 235.584 51.999 227.124C51.489 210.224 60.6688 198.754 80.2888 191.664C78.1688 182.924 76.0289 174.144 73.9089 165.364C62.0289 116.154 50.1588 66.9539 38.2988 17.744C36.8488 11.734 34.7489 10.004 28.6289 9.99395C21.5889 9.99395 14.559 9.86395 7.51904 10.0539C4.62904 10.1339 2.529 9.26398 0.979004 6.89398V3.164C2.519 0.783996 4.62904 -0.0660385 7.51904 0.00396146C15.169 0.183961 22.839 0.053959 30.499 0.063959C38.849 0.083959 45.5091 5.05401 47.5291 13.174C51.6991 29.884 55.7589 46.624 59.6689 63.394C60.2689 65.964 61.229 66.5839 63.759 66.5839C145.729 66.5139 227.699 66.524 309.669 66.524C310.599 66.524 311.529 66.524 312.459 66.524C318.189 66.544 320.069 69.104 318.349 74.684C313.539 90.364 308.709 106.034 303.869 121.704C298.389 139.444 292.559 157.074 287.499 174.934C283.369 189.524 269.969 201.584 251.469 201.464C197.029 201.124 142.589 201.334 88.1489 201.344C75.9789 201.344 66.2589 208.174 63.1189 218.844C58.4289 234.784 70.009 250.394 86.749 250.424C137.879 250.494 189.009 250.424 240.129 250.464C255.809 250.464 268.699 259.754 273.289 274.154C279.409 293.394 267.279 313.724 247.439 317.484C246.849 317.594 246.289 317.884 245.719 318.094H236.399C235.939 317.894 235.489 317.604 234.999 317.514C215.429 313.764 203.229 294.804 208.589 275.634C210.049 270.424 213.179 265.674 215.469 260.864H131.359C132.199 261.904 132.779 262.614 133.349 263.334C146.619 280.084 141.289 304.794 122.219 314.394C119.049 315.994 115.509 316.874 112.149 318.094H101.589H101.599ZM90.5989 191.384C91.7089 191.384 92.729 191.384 93.749 191.384C146.649 191.384 199.539 191.384 252.439 191.384C264.799 191.384 273.789 184.794 277.429 173.034C285.109 148.204 292.759 123.374 300.419 98.534C302.659 91.274 304.889 84.014 307.149 76.694H62.929C72.179 115.024 81.3689 153.094 90.6189 191.384H90.5989ZM241.659 260.694C228.769 260.174 217.979 270.334 217.289 283.664C216.629 296.294 227.189 307.524 240.289 308.124C253.159 308.714 264.349 298.114 264.829 284.894C265.299 272.104 254.889 261.234 241.659 260.694ZM106.809 308.154C119.669 308.244 130.589 297.414 130.659 284.504C130.729 271.394 119.999 260.674 106.779 260.654C93.7891 260.634 83.0589 271.374 83.0889 284.364C83.1189 297.314 93.8288 308.064 106.809 308.154Z" fill="black"/>
<path d="M176.109 133.894C176.109 122.924 176.099 111.954 176.109 100.984C176.109 97.0339 177.909 94.914 181.119 94.934C184.299 94.964 186.059 97.114 186.059 101.074C186.059 123.014 186.059 144.954 186.059 166.894C186.059 170.724 184.139 173.004 181.019 172.984C177.919 172.964 176.109 170.724 176.109 166.804C176.089 155.834 176.109 144.864 176.109 133.894Z" fill="black"/>
<path d="M125.989 133.914C125.989 127.394 125.929 120.884 126.009 114.364C126.059 110.484 128.419 108.204 131.689 108.574C134.659 108.904 136.229 111.004 136.239 114.894C136.269 126.164 136.249 137.444 136.249 148.714C136.249 150.264 136.289 151.814 136.239 153.364C136.129 157.124 134.059 159.494 131.009 159.414C128.059 159.344 126.049 157.074 126.009 153.454C125.939 146.934 125.989 140.424 125.989 133.904V133.914Z" fill="black"/>
<path d="M225.909 133.734C225.909 127.424 225.889 121.114 225.909 114.814C225.929 110.914 227.749 108.654 230.839 108.544C234.089 108.424 236.079 110.674 236.089 114.784C236.139 127.504 236.129 140.224 236.089 152.944C236.079 157.064 234.149 159.434 231.019 159.444C227.899 159.444 225.919 156.984 225.909 152.984C225.889 146.574 225.909 140.164 225.909 133.754V133.734Z" fill="black"/>
</svg>
