<svg width="20" height="20" viewBox="0 0 20 20" fill="none" xmlns="http://www.w3.org/2000/svg">
<path d="M16.18 19.25H3.82001C2.12001 19.25 0.75 17.87 0.75 16.18V3.82001C0.75 2.12001 2.13001 0.75 3.82001 0.75H16.18C17.88 0.75 19.25 2.13001 19.25 3.82001V16.18C19.25 17.87 17.87 19.25 16.18 19.25Z" stroke="black" stroke-width="1.5" stroke-linecap="round" stroke-linejoin="round"/>
<path d="M0.75 15.45L4.28 11.92C4.88 11.32 5.85999 11.32 6.45999 11.92L7.35999 12.82C7.95999 13.42 8.94001 13.42 9.54001 12.82L13.53 8.82997C14.13 8.22997 15.11 8.22997 15.71 8.82997L19.24 12.36" stroke="black" stroke-width="1.5" stroke-linecap="round" stroke-linejoin="round"/>
<path d="M6.14999 3.91C5.30999 3.91 4.63 4.58999 4.63 5.42999C4.63 6.26999 5.30999 6.95001 6.14999 6.95001C6.98999 6.95001 7.67001 6.26999 7.67001 5.42999C7.67001 4.58999 6.97999 3.91 6.14999 3.91Z" fill="black"/>
</svg>
